<svg xmlns="http://www.w3.org/2000/svg" width="134" height="79" viewBox="0 0 134 79" fill="none"><path d="M64.1459 65.4252L65.0603 48.2212C65.2868 43.9665 68.1793 41.7466 72.5576 41.7466C73.8529 41.7466 75.6307 41.9316 77.098 42.1781L77.4455 35.6417C75.6053 35.4567 74.7552 35.2102 72.042 35.2102C62.8538 35.2102 57.1069 40.0818 56.6579 48.5298L55.7597 65.4255L64.1459 65.4252Z" fill="#858474"></path><path d="M85.53 65.4252L87.0973 35.9501H78.7108L77.1438 65.4252H85.53Z" fill="#858474"></path><path d="M113.25 65.371L115.416 45.8904C116.243 38.4486 111.414 35.0378 102.979 35.0378C94.5446 35.0378 88.956 38.4486 88.1289 45.8904L85.9571 65.4255H94.2672L96.3425 46.7587C96.7632 42.9756 98.479 41.4876 102.2 41.4876C105.921 41.4876 107.306 42.9759 106.886 46.7587L104.816 65.371H113.25Z" fill="#858474"></path><path d="M132.072 57.6558C130.939 58.0874 129.817 58.3339 128.09 58.3339C125.315 58.3339 123.823 56.2372 123.971 53.4622L124.557 42.4246H131.957L132.301 35.9499H124.985L116.519 33.2319L115.584 53.4622C115.231 61.1111 119.82 65.4251 126.849 65.4251C128.822 65.4251 130.689 65.1168 131.695 64.747L132.072 57.6558Z" fill="#858474"></path><path d="M32.9028 78.9296L33.7258 63.4521C35.4772 65.3019 38.2678 66.1654 41.2279 66.1654C49.5523 66.1654 55.5202 60.6156 55.9954 51.6743C56.4938 42.3014 51.2594 35.2102 42.3184 35.2102C33.0687 35.2102 26.5393 40.8832 26.0215 50.6258L24.5166 78.9293L32.9028 78.9296ZM40.345 59.5675C36.1518 59.5675 33.6611 56.546 33.9723 50.6879C34.2838 44.8299 37.0958 41.8087 41.289 41.8087C45.482 41.8087 47.9729 44.8299 47.6617 50.6879C47.3503 56.546 44.538 59.5675 40.345 59.5675Z" fill="#858474"></path><path d="M104.345 24.4239C103.212 24.8554 102.089 25.102 100.362 25.102C97.5872 25.102 96.0954 23.0053 96.2428 20.2303L96.8295 9.19296H104.229L104.573 2.71801H97.2572L88.7911 0L87.8566 20.2303C87.5031 27.8792 92.0919 32.1932 99.1217 32.1932C101.095 32.1932 102.961 31.8849 103.967 31.5151L104.345 24.4239Z" fill="#017DB9"></path><path d="M57.4936 31.4498H50.0517L50.2068 28.5349C48.3646 30.5191 45.5469 32.1938 41.3298 32.1938C32.9576 32.1938 27.5489 26.6125 28.027 17.6202C28.5283 8.19379 34.5507 1.0618 44.1634 1.0618C53.2796 1.0618 58.8424 6.08505 58.285 16.5657L57.4936 31.4498ZM43.8723 7.69758C39.6551 7.69758 36.8273 10.7363 36.5139 16.6278C36.2005 22.5189 38.7057 25.558 42.9226 25.558C47.1397 25.558 49.9679 22.5189 50.2813 16.6278C50.5947 10.7363 48.0891 7.69758 43.8723 7.69758Z" fill="#017DB9"></path><path d="M85.3004 31.3953L87.4665 11.9144C88.2939 4.47285 83.4637 1.0618 75.0294 1.0618C66.5951 1.0618 61.0065 4.47285 60.1794 11.9144L58.0076 31.4498H66.3177L68.393 12.7829C68.8137 8.99989 70.5294 7.51158 74.2507 7.51158C77.9713 7.51158 79.3564 9.00021 78.936 12.7829L76.8668 31.3953H85.3004Z" fill="#017DB9"></path><path d="M132.527 31.4498H125.085L125.24 28.5349C123.398 30.5191 120.58 32.1938 116.363 32.1938C107.991 32.1938 102.582 26.6125 103.06 17.6202C103.562 8.19379 109.584 1.0618 119.197 1.0618C128.313 1.0618 133.876 6.08505 133.319 16.5657L132.527 31.4498ZM118.906 7.69758C114.689 7.69758 111.86 10.7363 111.547 16.6278C111.234 22.5189 113.739 25.558 117.956 25.558C122.173 25.558 125.001 22.5189 125.315 16.6278C125.628 10.7363 123.123 7.69758 118.906 7.69758Z" fill="#017DB9"></path><path d="M0 31.5115C2.15078 31.8835 5.29716 32.1937 9.57642 32.1937C16.7081 32.1937 27.0721 30.8914 27.5696 21.5271C27.7244 18.6123 26.4533 15.6978 23.2878 14.5811C20.243 13.5272 16.4377 12.7829 12.5671 12.1004C9.92676 11.6045 9.38819 11.2325 9.44456 10.178C9.55986 8.00776 12.4256 7.75966 16.8912 7.75966C20.7361 7.75966 23.4518 8.00776 25.6023 8.37976L25.9587 1.68187C23.4356 1.30987 20.9682 1.06177 18.4257 1.06177C8.93721 1.06177 1.37939 4.41071 1.05612 10.4882C0.871394 13.9613 2.15014 15.5735 4.50284 16.8141C8.00434 18.6123 13.0693 18.9843 16.7998 19.9767C18.6958 20.4729 19.4003 21.2169 19.3411 22.3332C19.2293 24.442 15.958 25.3098 10.0669 25.3098C5.72585 25.3098 2.58297 24.9378 0.370088 24.5655L0 31.5115Z" fill="#017DB9"></path></svg>